<svg xmlns="http://www.w3.org/2000/svg" width="218" height="50" viewBox="0 0 218 50" fill="none">
  <path d="M178.72 34.5106H184.133C187.4 34.5106 188.908 32.8249 188.908 30.523C188.908 28.2136 187.378 26.825 185.9 26.721V26.6022C187.259 26.2384 188.314 25.1839 188.314 23.2829C188.314 20.9958 186.821 19.3028 183.851 19.3028H178.72V34.5106ZM180.108 33.263V27.4042H184.192C186.235 27.4042 187.579 28.7854 187.579 30.523C187.579 32.0972 186.48 33.263 184.133 33.263H180.108ZM180.108 26.1715V20.5503H183.851C185.93 20.5503 186.985 21.6716 186.985 23.2829C186.985 24.9537 185.774 26.1715 183.977 26.1715H180.108ZM192.26 19.3028H190.938V34.5106H192.26V19.3028ZM199.145 34.7482C202.101 34.7482 204.165 32.3348 204.165 28.8596C204.165 25.3621 202.101 22.9488 199.145 22.9488C196.19 22.9488 194.125 25.3621 194.125 28.8596C194.125 32.3348 196.19 34.7482 199.145 34.7482ZM199.145 33.5378C196.776 33.5378 195.455 31.4141 195.455 28.8596C195.455 26.3052 196.776 24.1517 199.145 24.1517C201.514 24.1517 202.836 26.3052 202.836 28.8596C202.836 31.4141 201.514 33.5378 199.145 33.5378ZM210.372 39.0254C213.075 39.0254 215.08 37.7036 215.08 34.8076V23.1047H213.788V25.2805H213.655C213.187 24.2557 212.244 22.9488 210.15 22.9488C207.328 22.9488 205.434 25.3102 205.434 28.7779C205.434 32.2754 207.395 34.3917 210.127 34.3917C212.177 34.3917 213.179 33.2036 213.632 32.1566H213.751V34.7259C213.751 36.8496 212.392 37.8373 210.372 37.8373C208.419 37.8373 207.484 36.8942 207.001 36.0254L205.917 36.7383C206.585 38.0452 208.041 39.0254 210.372 39.0254ZM210.283 33.1814C208.018 33.1814 206.764 31.3695 206.764 28.7557C206.764 26.1864 207.996 24.1517 210.283 24.1517C212.518 24.1517 213.773 26.0824 213.773 28.7557C213.773 31.5106 212.481 33.1814 210.283 33.1814Z" fill="#413E52"/>
  <path d="M53 19.4734H58.7759V34.7293H62.7186V19.4734H68.4944V16.2526H53V19.4734ZM74.0718 35C77.5723 35 79.9306 33.331 80.4832 30.7597L76.8538 30.5251C76.4576 31.5807 75.4443 32.131 74.1363 32.131C72.1741 32.131 70.9305 30.8589 70.9305 28.7929V28.7839H80.5661V27.7284C80.5661 23.019 77.6552 20.6913 73.9151 20.6913C69.7513 20.6913 67.0523 23.5874 67.0523 27.8637C67.0523 32.2574 69.7145 35 74.0718 35ZM70.9305 26.4022C71.0134 24.8234 72.2385 23.5603 73.9796 23.5603C75.6839 23.5603 76.863 24.7512 76.8722 26.4022H70.9305ZM88.2231 35C91.9908 35 94.3582 32.8348 94.5425 29.6501H90.8392C90.609 31.1296 89.6141 31.9596 88.2691 31.9596C86.436 31.9596 85.2477 30.4529 85.2477 27.8005C85.2477 25.1842 86.4452 23.6866 88.2691 23.6866C89.7062 23.6866 90.6274 24.6158 90.8392 25.9962H94.5425C94.3767 22.7934 91.8987 20.6913 88.2047 20.6913C83.9119 20.6913 81.2589 23.6054 81.2589 27.8547C81.2589 32.0678 83.8659 35 88.2231 35ZM99.6826 26.7179C99.6919 24.9316 100.806 23.8851 102.409 23.8851C104.003 23.8851 104.943 24.8864 104.933 26.5916V34.7293H108.857V25.906C108.867 22.6581 106.914 20.6913 103.966 20.6913C101.819 20.6913 100.382 21.6837 99.7374 23.3167H99.572V16.2526H95.758V34.7293H99.6826V26.7179ZM127.369 22.7213C126.843 18.4539 123.546 16 119.179 16C114.195 16 110.391 19.4463 110.391 25.491C110.391 31.5175 114.131 34.9819 119.179 34.9819C124.015 34.9819 126.935 31.8333 127.369 28.4321L123.334 28.4141C122.955 30.3898 121.372 31.5266 119.243 31.5266C116.378 31.5266 114.435 29.4425 114.435 25.491C114.435 21.6477 116.35 19.4553 119.271 19.4553C121.454 19.4553 123.03 20.6913 123.334 22.7213H127.369ZM137.932 28.8291C137.941 30.6875 136.642 31.6619 135.233 31.6619C133.749 31.6619 132.791 30.6424 132.783 29.0095V20.8717H128.858V29.6951C128.867 32.934 130.802 34.9098 133.648 34.9098C135.776 34.9098 137.305 33.8362 137.941 32.2122H138.088V34.7293H141.856V20.8717H137.932V28.8291ZM150.146 35C153.646 35 156.005 33.331 156.558 30.7597L152.928 30.5251C152.532 31.5807 151.519 32.131 150.21 32.131C148.248 32.131 147.004 30.8589 147.004 28.7929V28.7839H156.64V27.7284C156.64 23.019 153.729 20.6913 149.989 20.6913C145.826 20.6913 143.127 23.5874 143.127 27.8637C143.127 32.2574 145.789 35 150.146 35ZM147.004 26.4022C147.088 24.8234 148.313 23.5603 150.054 23.5603C151.758 23.5603 152.937 24.7512 152.947 26.4022H147.004ZM169.677 24.8234C169.327 22.2702 167.226 20.6913 163.653 20.6913C160.032 20.6913 157.646 22.3333 157.656 25.0038C157.646 27.0788 158.982 28.4231 161.745 28.9643L164.196 29.4425C165.431 29.6861 165.992 30.1281 166.011 30.8229C165.992 31.6438 165.08 32.2302 163.707 32.2302C162.308 32.2302 161.377 31.6438 161.137 30.5161L157.278 30.7146C157.646 33.367 159.949 35 163.699 35C167.365 35 169.991 33.1686 170 30.4349C169.991 28.4321 168.655 27.2322 165.909 26.6818L163.349 26.1766C162.032 25.897 161.543 25.4548 161.552 24.7872C161.543 23.9572 162.501 23.416 163.717 23.416C165.08 23.416 165.891 24.1467 166.084 25.0398L169.677 24.8234Z" fill="#413E52"/>
  <path d="M30.7002 5.14805C21.2618 2.85667 3.08772 18.5144 3.04883 30.1429C3.00248 44.002 23.7401 50.0429 33.822 44.206C43.9038 38.369 40.1387 7.43943 30.7002 5.14805Z" fill="#5C5CFF"/>
  <path d="M29 20C29 23.866 25.8659 27 22 27C18.134 27 15 23.866 15 20C15 16.1341 18.134 13 22 13C25.8659 13 29 16.1341 29 20Z" fill="white"/>
</svg>